<?xml version="1.0" encoding="UTF-8" standalone="no"?>
<!-- Created with Inkscape (http://www.inkscape.org/) -->

<svg
   xmlns:dc="http://purl.org/dc/elements/1.1/"
   xmlns:cc="http://creativecommons.org/ns#"
   xmlns:rdf="http://www.w3.org/1999/02/22-rdf-syntax-ns#"
   xmlns:svg="http://www.w3.org/2000/svg"
   xmlns="http://www.w3.org/2000/svg"
   xmlns:sodipodi="http://sodipodi.sourceforge.net/DTD/sodipodi-0.dtd"
   xmlns:inkscape="http://www.inkscape.org/namespaces/inkscape"
   width="744.09448819"
   height="1052.3622047"
   id="svg2"
   inkscape:label="Pozadí"
   version="1.1"
   inkscape:version="0.48.4 r9939"
   sodipodi:docname="Nový dokument 9">
  <defs
     id="defs4650" />
  <sodipodi:namedview
     id="base"
     pagecolor="#ffffff"
     bordercolor="#666666"
     borderopacity="1.0"
     inkscape:pageopacity="0.0"
     inkscape:pageshadow="2"
     inkscape:zoom="0.35"
     inkscape:cx="375"
     inkscape:cy="520"
     inkscape:document-units="px"
     inkscape:current-layer="layer1"
     showgrid="false"
     inkscape:window-width="1920"
     inkscape:window-height="1032"
     inkscape:window-x="-4"
     inkscape:window-y="-3"
     inkscape:window-maximized="1" />
  <metadata
     id="metadata4653">
    <rdf:RDF>
      <cc:Work
         rdf:about="">
        <dc:format>image/svg+xml</dc:format>
        <dc:type
           rdf:resource="http://purl.org/dc/dcmitype/StillImage" />
        <dc:title></dc:title>
      </cc:Work>
    </rdf:RDF>
  </metadata>
  <g
     inkscape:label="Vrstva 1"
     inkscape:groupmode="layer"
     id="layer1">
    <path
       style="fill:#4d4d4d;fill-opacity:1;fill-rule:nonzero;stroke:none"
       d="m 386.47767,66.087006 c -65.3932,0 -128.28536,2.522323 -194.75,13.593751 -19.12645,3.18602 -34.28125,13.72375 -34.28125,30.343753 l 0,135.34375 -4.65625,0 0,146.96875 4.65625,0 0,555.59375 c 0,16.62 13.74954,27.00114 32.84375,30.375 64.67893,11.4286 129.73179,14.625 195.125,14.625 65.39321,0 129.00858,-2.4911 193.6875,-11.0625 19.22195,-2.5474 40.71872,-17.3175 40.71872,-33.9375 l 0,-703.53125 4.5313,0 0,-60 -4.5313,0 0,-74.375 c 0,-16.620003 -17.39239,-28.515223 -36.43747,-32.156253 C 518.00043,65.368253 454.60776,66.087006 386.47767,66.087006 z m 1.46875,35.625004 c 6.11458,0 11.0625,4.94792 11.0625,11.0625 0,6.11458 -4.94792,11.0625 -11.0625,11.0625 -6.11458,0 -11.09375,-4.94792 -11.09375,-11.0625 0,-6.11458 4.97917,-11.0625 11.09375,-11.0625 z m -154.96875,5.53125 c 3.27761,0 5.9375,2.65989 5.9375,5.9375 0,3.27761 -2.65989,5.9375 -5.9375,5.9375 -3.27761,0 -5.9375,-2.65989 -5.9375,-5.9375 0,-3.27761 2.65989,-5.9375 5.9375,-5.9375 z m -56.125,34.8125 422.34375,0 0,750.53125 -422.34375,0 0,-750.53125 z"
       id="rect4122"
       inkscape:connector-curvature="0" />
  </g>
</svg>
